<svg width="87" height="39" viewBox="0 0 87 39" fill="none" xmlns="http://www.w3.org/2000/svg">
<path d="M40.5857 14.6857C38.194 12.5754 34.0947 11.2065 33.1857 18.491M33.1857 18.491C32.9563 20.3292 32.9301 22.7184 33.1857 25.7857C33.1857 26.6667 34.6657 27.9 40.5857 25.7857C46.5057 23.6714 38.1191 20.0416 33.1857 18.491ZM62.2572 18.491C62.8167 14.0071 64.585 12.8019 66.4198 13.0301C68.8275 13.3296 70.212 16.5316 68.0174 17.5663C66.8674 18.1085 65.0484 18.491 62.2572 18.491ZM62.2572 18.491C62.0278 20.3292 62.0016 22.7184 62.2572 25.7857C62.2572 26.6667 63.7372 27.9 69.6572 25.7857C75.5772 23.6714 67.1905 20.0416 62.2572 18.491ZM76 25.7857C76 26.6667 77.48 27.9 83.4 25.7857C86.8281 24.5614 85.4589 22.8289 82.7409 21.2862C79.4326 19.4085 75.6841 21.9948 76 25.7857V25.7857ZM76 25.7857V13.6286M52 26C50.2959 25.17 49.0498 24.4217 48.1792 23.73C43.264 19.824 53.162 15.3196 55.1853 21.2628C56.4258 24.9067 56.4371 28.1611 52 26Z" stroke="white" stroke-width="3" stroke-linecap="round"/>
<path d="M2 26.0486C3.9381 7.90097 9.18857 -17.5057 14.6857 26.0486" stroke="white" stroke-width="3" stroke-linecap="round"/>
<path d="M18.9142 14.131V20.7512M18.9142 26.3143V20.7512M18.9142 20.7512H22.6142M22.6142 20.7512C22.6142 13.5738 27.8236 15.9421 28.8003 22.4387C29.7545 28.7853 22.6142 27.1691 22.6142 20.7512V20.7512Z" stroke="white" stroke-width="3" stroke-linecap="round"/>
</svg>
